PathFileType	4	(X/Y/Z)	C:/Users/opensim2020/Desktop/walking_exp_matlab/subject03_walking08_straight_04.trc																																																																																																																																																							
DataRate	CameraRate	NumFrames	NumMarkers	Units	OrigDataRate	OrigDataStartFrame	OrigNumFrames																																																																																																																																																			
100	100	4	51	mm	100	3579	303																																																																																																																																																			
Frame#	Time	LFHD			RFHD			LBHD			RBHD			C7			T10			CLAV			STRN			RBAK			LSHO			LUPA			LELB			LFRM			LWRA			LWRB			LFIN			RSHO			RUPA			RELB			RFRM			RWRA			RWRB			RFIN			LASI			RASI			LPSI			RPSI			LTHI			LKNE			LTIB			LANK			LHEE			LTOE			RTHI			RKNE			RTIB			RANK			RHEE			RTOE			*39			*40			*41			*42			*43			*44			*45			*46			*47			*48			*49			*50		
		X1	Y1	Z1	X2	Y2	Z2	X3	Y3	Z3	X4	Y4	Z4	X5	Y5	Z5	X6	Y6	Z6	X7	Y7	Z7	X8	Y8	Z8	X9	Y9	Z9	X10	Y10	Z10	X11	Y11	Z11	X12	Y12	Z12	X13	Y13	Z13	X14	Y14	Z14	X15	Y15	Z15	X16	Y16	Z16	X17	Y17	Z17	X18	Y18	Z18	X19	Y19	Z19	X20	Y20	Z20	X21	Y21	Z21	X22	Y22	Z22	X23	Y23	Z23	X24	Y24	Z24	X25	Y25	Z25	X26	Y26	Z26	X27	Y27	Z27	X28	Y28	Z28	X29	Y29	Z29	X30	Y30	Z30	X31	Y31	Z31	X32	Y32	Z32	X33	Y33	Z33	X34	Y34	Z34	X35	Y35	Z35	X36	Y36	Z36	X37	Y37	Z37	X38	Y38	Z38	X39	Y39	Z39	X40	Y40	Z40	X41	Y41	Z41	X42	Y42	Z42	X43	Y43	Z43	X44	Y44	Z44	X45	Y45	Z45	X46	Y46	Z46	X47	Y47	Z47	X48	Y48	Z48	X49	Y49	Z49	X50	Y50	Z50	X51	Y51	Z51
																																																																																																																																																										
228	2.27	483.33362	1623.54114	-1493.08313	477.04562	1629.09009	-1360.25732	355.75946	1578.91199	-1493.10803	354.39786	1584.49036	-1362.21973	320.8627	1422.40942	-1431.60596	290.35339	1107.375	-1428.54309	442.33472	1344.69409	-1433.31201	486.01572	1180.93909	-1439.71716	269.94659	1246.56079	-1332.79041	393.23215	1382.89099	-1588.45654	370.86282	1186.01746	-1660.20374	371.1524	1063.22241	-1675.11987	389.67368	934.22076	-1680.92529	400.85519	813.58545	-1656.04211	376.01611	823.06378	-1705.42908	381.32758	737.83734	-1699.77185	401.25964	1368.92139	-1272.73511	429.86279	1148.61975	-1200.10315	464.70413	1041.31128	-1188.37891	503.78436	910.18817	-1187.50696	546.0824	821.08698	-1225.40491	520.2511	811.58167	-1178.65051	554.82831	746.5722	-1188.90845	455.76785	946.06848	-1551.35852	465.53232	947.22656	-1313.4491	295.03503	963.39697	-1497.20325	303.22937	976.13879	-1347.80688	456.5827	644.77197	-1603.45386	505.38464	471.72647	-1581.80823	377.18896	321.01495	-1574.92383	255.19402	153.13998	-1531.88525	203.31572	141.29962	-1489.42969	363.40985	53.74491	-1518.38879	414.98337	650.49762	-1282.16296	428.43268	471.78079	-1324.61365	380.77722	286.27179	-1327.49585	350.90503	73.87354	-1384.36536	308.47321	42.41196	-1436.94482	492.245	38.13423	-1391.70593	398.53088	1685.36646	-1446.86243	NaN	NaN	NaN	NaN	NaN	NaN	NaN	NaN	NaN	NaN	NaN	NaN	NaN	NaN	NaN	NaN	NaN	NaN	NaN	NaN	NaN	NaN	NaN	NaN	NaN	NaN	NaN	NaN	NaN	NaN	NaN	NaN	NaN
229	2.28	491.18381	1623.27917	-1493.13867	484.61432	1628.82373	-1360.30005	363.4812	1579.05115	-1493.55945	361.78091	1584.55444	-1362.5885	327.94931	1422.63	-1431.95398	297.30148	1107.35071	-1428.2373	449.33453	1344.54163	-1433.43384	492.94244	1180.80261	-1439.51758	277.19104	1246.8717	-1332.37207	400.08765	1382.55835	-1588.6333	376.60782	1185.80261	-1660.58325	376.05081	1063.06702	-1675.63135	394.22546	934.03455	-1681.57556	405.71591	813.55432	-1656.73425	380.3186	822.7962	-1705.85425	386.15375	737.65637	-1700.13318	408.61581	1369.22949	-1272.97144	438.70099	1149.39856	-1199.69226	474.50272	1042.52576	-1187.78162	515.79633	912.11383	-1187.23047	559.72247	823.74463	-1225.30481	533.89838	813.65509	-1178.74146	569.77234	749.32764	-1189.04883	463.38635	946.71924	-1550.85754	472.20633	946.97369	-1313.15967	302.57645	963.13385	-1497.29065	310.04797	975.85815	-1347.86707	468.69931	646.40118	-1602.99963	519.50671	473.90964	-1580.62878	395.94315	319.08475	-1574.74573	280.05191	146.45775	-1532.55701	228.54208	132.19801	-1490.32471	392.38516	51.99293	-1519.32886	420.44406	650.0509	-1282.3446	432.67978	471.33417	-1324.79834	383.34161	286.20337	-1327.65247	351.12442	73.92325	-1384.55981	308.58182	42.56357	-1437.23511	492.32846	38.07801	-1391.70483	406.47787	1685.36816	-1447.09436	NaN	NaN	NaN	NaN	NaN	NaN	NaN	NaN	NaN	NaN	NaN	NaN	NaN	NaN	NaN	NaN	NaN	NaN	NaN	NaN	NaN	NaN	NaN	NaN	NaN	NaN	NaN	NaN	NaN	NaN	NaN	NaN	NaN
230	2.29	499.0076	1622.94226	-1493.16479	492.06436	1628.46216	-1360.35266	371.20218	1579.06934	-1493.95129	369.17297	1584.59387	-1363.08167	335.19131	1422.48926	-1432.03101	304.28912	1107.21997	-1427.83337	456.50031	1344.38623	-1433.67102	499.8793	1180.65698	-1439.36743	284.66837	1246.86108	-1331.87048	407.05508	1382.0199	-1588.76379	382.49677	1185.43457	-1660.92554	381.09644	1062.75891	-1676.18848	398.98401	933.73828	-1682.1416	410.80884	813.42749	-1657.36414	384.90613	822.36945	-1706.23914	392.29471	737.89807	-1700.54443	415.99561	1369.39014	-1273.16565	447.38455	1150.06653	-1199.35181	484.34174	1043.62659	-1187.17554	527.82367	913.89404	-1186.99438	573.28381	826.59937	-1225.37915	547.34894	815.67755	-1179.00903	584.24707	752.11847	-1189.36877	470.96921	947.22809	-1550.40637	478.98495	946.8421	-1312.8125	309.83527	962.99524	-1497.51355	316.7258	975.50708	-1348.03723	480.35507	647.87561	-1602.82178	533.15601	476.06268	-1579.45081	414.51599	317.04425	-1574.52429	305.40875	139.76735	-1533.15845	254.4048	122.95145	-1491.14075	421.71445	50.41447	-1520.40283	425.88989	649.57245	-1282.61023	436.84027	470.88574	-1324.98767	385.79379	286.10303	-1327.94128	351.36676	74.02047	-1384.7865	309.20993	42.60445	-1437.33203	492.42532	38.06941	-1391.797	414.70889	1685.43176	-1447.69104	NaN	NaN	NaN	NaN	NaN	NaN	NaN	NaN	NaN	NaN	NaN	NaN	NaN	NaN	NaN	NaN	NaN	NaN	NaN	NaN	NaN	NaN	NaN	NaN	NaN	NaN	NaN	NaN	NaN	NaN	NaN	NaN	NaN
231	2.3	506.79218	1622.54517	-1493.25769	499.46396	1628.06482	-1360.47668	379.04788	1578.92371	-1494.28943	376.55124	1584.37695	-1363.59399	342.31699	1422.43408	-1432.34009	311.16763	1107.09912	-1427.64685	463.49924	1344.08691	-1433.85425	506.75946	1180.26794	-1439.22876	291.83118	1246.9845	-1331.55151	413.79205	1381.43579	-1589.06091	388.40936	1184.93262	-1661.20435	386.20062	1062.29773	-1676.67761	403.85706	933.28241	-1682.70422	416.17783	813.10455	-1657.7533	389.70892	821.83228	-1706.53577	396.93521	737.03809	-1700.42908	423.31723	1369.43567	-1273.3772	456.09232	1150.64697	-1199.01489	494.0274	1044.63196	-1186.72192	539.51147	915.59717	-1186.81201	587.18475	829.53894	-1225.08203	560.64868	817.61139	-1179.3031	598.72015	754.9632	-1190.01135	479.0719	947.93451	-1549.84583	485.03271	946.27997	-1312.2561	317.09879	962.71503	-1497.77954	323.44342	974.99231	-1348.22864	491.65402	649.11963	-1602.72986	546.34949	478.07098	-1578.36816	432.94861	314.82422	-1574.26465	331.07382	133.03506	-1533.47656	280.87683	113.79182	-1491.59888	451.23138	48.93507	-1521.38672	431.16104	649.08539	-1282.87842	440.90607	470.42474	-1325.18176	388.13907	285.98541	-1328.20154	351.6113	74.23331	-1384.92395	309.27313	42.84208	-1437.48254	492.3736	38.11991	-1391.62341	422.1506	1684.91016	-1447.67041	NaN	NaN	NaN	NaN	NaN	NaN	NaN	NaN	NaN	NaN	NaN	NaN	NaN	NaN	NaN	NaN	NaN	NaN	NaN	NaN	NaN	NaN	NaN	NaN	NaN	NaN	NaN	NaN	NaN	NaN	NaN	NaN	NaN
